<?xml version="1.0" encoding="UTF-8" standalone="no"?>
<!DOCTYPE svg PUBLIC "-//W3C//DTD SVG 1.1//EN" "http://www.w3.org/Graphics/SVG/1.1/DTD/svg11.dtd">
<svg width="100%" height="100%" viewBox="0 0 400 400" version="1.1" xmlns="http://www.w3.org/2000/svg" xmlns:xlink="http://www.w3.org/1999/xlink" xml:space="preserve" xmlns:serif="http://www.serif.com/" style="fill-rule:evenodd;clip-rule:evenodd;stroke-linejoin:round;stroke-miterlimit:2;">
    <g>
        <g transform="matrix(0.74659,0,0,0.746147,57.0115,94.9108)">
            <g transform="matrix(128,0,0,128,13.9596,359.388)">
                <path d="M0.237,-0.011C0.239,-0.008 0.24,-0.006 0.24,-0.003C0.24,0.001 0.239,0.004 0.236,0.006C0.234,0.009 0.231,0.01 0.227,0.01C0.223,0.01 0.22,0.009 0.218,0.006C0.215,0.004 0.214,0.001 0.214,-0.003C0.214,-0.006 0.215,-0.009 0.217,-0.011L0.217,-0.032C0.208,-0.02 0.197,-0.009 0.184,-0.002C0.171,0.006 0.154,0.01 0.134,0.01C0.114,0.01 0.098,0.006 0.085,-0C0.072,-0.007 0.061,-0.016 0.053,-0.026C0.045,-0.037 0.039,-0.049 0.036,-0.063C0.032,-0.077 0.031,-0.091 0.031,-0.105L0.031,-0.186C0.031,-0.2 0.032,-0.214 0.035,-0.228C0.038,-0.242 0.045,-0.254 0.053,-0.265C0.062,-0.275 0.075,-0.284 0.092,-0.291C0.109,-0.297 0.131,-0.301 0.158,-0.301L0.217,-0.301L0.217,-0.395C0.217,-0.406 0.215,-0.418 0.213,-0.429C0.21,-0.441 0.205,-0.451 0.199,-0.46C0.193,-0.469 0.184,-0.476 0.173,-0.482C0.163,-0.487 0.149,-0.49 0.134,-0.49C0.119,-0.49 0.106,-0.488 0.096,-0.483C0.085,-0.478 0.077,-0.471 0.07,-0.463C0.063,-0.455 0.058,-0.446 0.055,-0.436C0.052,-0.425 0.05,-0.415 0.05,-0.404C0.052,-0.402 0.053,-0.399 0.053,-0.396C0.053,-0.393 0.052,-0.39 0.049,-0.388C0.047,-0.385 0.044,-0.384 0.04,-0.384C0.036,-0.384 0.033,-0.385 0.031,-0.388C0.028,-0.39 0.027,-0.393 0.027,-0.396C0.027,-0.398 0.027,-0.399 0.028,-0.401C0.028,-0.403 0.029,-0.404 0.03,-0.405C0.031,-0.418 0.033,-0.432 0.037,-0.444C0.041,-0.457 0.047,-0.468 0.055,-0.478C0.064,-0.487 0.074,-0.495 0.087,-0.501C0.1,-0.507 0.115,-0.51 0.134,-0.51C0.153,-0.51 0.17,-0.506 0.183,-0.5C0.196,-0.493 0.207,-0.484 0.215,-0.474C0.223,-0.463 0.228,-0.451 0.232,-0.437C0.235,-0.423 0.237,-0.409 0.237,-0.395L0.237,-0.011ZM0.051,-0.105C0.051,-0.094 0.052,-0.082 0.055,-0.071C0.057,-0.059 0.062,-0.049 0.068,-0.04C0.074,-0.031 0.083,-0.024 0.094,-0.018C0.104,-0.013 0.118,-0.01 0.134,-0.01C0.149,-0.01 0.162,-0.012 0.173,-0.017C0.183,-0.022 0.192,-0.029 0.198,-0.037C0.204,-0.046 0.209,-0.055 0.212,-0.066C0.214,-0.076 0.216,-0.087 0.217,-0.098L0.217,-0.281L0.158,-0.281C0.135,-0.281 0.116,-0.278 0.102,-0.272C0.088,-0.267 0.077,-0.26 0.069,-0.251C0.061,-0.242 0.056,-0.232 0.054,-0.22C0.052,-0.209 0.051,-0.197 0.051,-0.186L0.051,-0.105Z" style="fill:rgb(217,126,74);fill-rule:nonzero;"/>
            </g>
            <g transform="matrix(128,0,0,128,49.1471,359.388)">
                <path d="M0.06,-0.011C0.062,-0.009 0.063,-0.006 0.063,-0.003C0.063,0.001 0.062,0.004 0.059,0.006C0.056,0.009 0.053,0.01 0.05,0.01C0.046,0.01 0.043,0.009 0.041,0.006C0.038,0.004 0.037,0.001 0.037,-0.003C0.037,-0.006 0.038,-0.009 0.04,-0.011L0.04,-0.488C0.038,-0.491 0.037,-0.494 0.037,-0.497C0.037,-0.501 0.038,-0.504 0.041,-0.506C0.043,-0.509 0.046,-0.51 0.05,-0.51C0.053,-0.51 0.056,-0.509 0.059,-0.506C0.062,-0.504 0.063,-0.501 0.063,-0.497C0.063,-0.494 0.062,-0.491 0.06,-0.488L0.06,-0.453C0.069,-0.469 0.08,-0.48 0.093,-0.488C0.106,-0.496 0.123,-0.5 0.143,-0.5L0.16,-0.5C0.163,-0.502 0.166,-0.503 0.169,-0.503C0.173,-0.503 0.176,-0.502 0.178,-0.499C0.181,-0.497 0.182,-0.494 0.182,-0.49C0.182,-0.487 0.181,-0.484 0.178,-0.481C0.176,-0.478 0.173,-0.477 0.169,-0.477C0.166,-0.477 0.163,-0.478 0.16,-0.48L0.143,-0.48C0.129,-0.48 0.117,-0.477 0.106,-0.472C0.096,-0.466 0.087,-0.459 0.081,-0.45C0.074,-0.441 0.069,-0.43 0.065,-0.419C0.062,-0.408 0.06,-0.396 0.06,-0.385L0.06,-0.011Z" style="fill:rgb(217,126,74);fill-rule:nonzero;"/>
            </g>
            <g transform="matrix(128,0,0,128,73.2096,359.388)">
                <path d="M0.055,-0.105C0.055,-0.093 0.057,-0.082 0.059,-0.07C0.062,-0.059 0.067,-0.049 0.073,-0.04C0.079,-0.031 0.088,-0.024 0.099,-0.018C0.109,-0.013 0.123,-0.01 0.138,-0.01C0.153,-0.01 0.166,-0.012 0.176,-0.017C0.187,-0.022 0.195,-0.028 0.202,-0.036C0.209,-0.044 0.213,-0.053 0.217,-0.063C0.22,-0.073 0.222,-0.084 0.222,-0.095C0.221,-0.096 0.22,-0.097 0.22,-0.099C0.219,-0.101 0.219,-0.102 0.219,-0.104C0.219,-0.107 0.22,-0.11 0.223,-0.112C0.225,-0.115 0.228,-0.116 0.232,-0.116C0.236,-0.116 0.239,-0.115 0.241,-0.112C0.244,-0.11 0.245,-0.107 0.245,-0.104C0.245,-0.102 0.245,-0.101 0.244,-0.099C0.244,-0.097 0.243,-0.096 0.242,-0.095C0.241,-0.082 0.239,-0.068 0.235,-0.056C0.231,-0.043 0.225,-0.032 0.217,-0.022C0.208,-0.013 0.198,-0.005 0.185,0.001C0.172,0.007 0.157,0.01 0.138,0.01C0.119,0.01 0.102,0.006 0.089,-0C0.076,-0.007 0.065,-0.016 0.057,-0.026C0.049,-0.037 0.044,-0.049 0.04,-0.063C0.037,-0.077 0.035,-0.091 0.035,-0.105L0.035,-0.395C0.035,-0.409 0.037,-0.423 0.04,-0.437C0.044,-0.451 0.049,-0.463 0.057,-0.474C0.065,-0.484 0.076,-0.493 0.089,-0.5C0.102,-0.506 0.119,-0.51 0.138,-0.51C0.157,-0.51 0.172,-0.507 0.185,-0.501C0.198,-0.495 0.208,-0.487 0.217,-0.478C0.225,-0.468 0.231,-0.457 0.235,-0.444C0.239,-0.432 0.241,-0.418 0.242,-0.405C0.243,-0.404 0.244,-0.403 0.244,-0.401C0.245,-0.399 0.245,-0.398 0.245,-0.396C0.245,-0.393 0.244,-0.39 0.241,-0.388C0.239,-0.385 0.236,-0.384 0.232,-0.384C0.228,-0.384 0.225,-0.385 0.223,-0.388C0.22,-0.39 0.219,-0.393 0.219,-0.396C0.219,-0.399 0.22,-0.402 0.222,-0.404C0.222,-0.415 0.22,-0.425 0.217,-0.436C0.213,-0.446 0.209,-0.455 0.202,-0.463C0.195,-0.471 0.187,-0.478 0.176,-0.483C0.166,-0.488 0.153,-0.49 0.138,-0.49C0.123,-0.49 0.109,-0.487 0.099,-0.482C0.088,-0.476 0.079,-0.469 0.073,-0.46C0.067,-0.451 0.062,-0.441 0.059,-0.429C0.057,-0.418 0.055,-0.406 0.055,-0.395L0.055,-0.105Z" style="fill:rgb(217,126,74);fill-rule:nonzero;"/>
            </g>
            <g transform="matrix(128,0,0,128,106.897,359.388)">
                <path d="M0.246,-0.011C0.248,-0.009 0.249,-0.006 0.249,-0.003C0.249,0.001 0.248,0.004 0.245,0.006C0.243,0.009 0.239,0.01 0.236,0.01C0.232,0.01 0.229,0.009 0.227,0.006C0.224,0.004 0.223,0.001 0.223,-0.003C0.223,-0.006 0.224,-0.009 0.226,-0.011L0.226,-0.395C0.226,-0.406 0.225,-0.418 0.222,-0.429C0.22,-0.441 0.215,-0.451 0.209,-0.46C0.202,-0.469 0.194,-0.476 0.183,-0.482C0.173,-0.487 0.159,-0.49 0.143,-0.49C0.129,-0.49 0.117,-0.487 0.106,-0.482C0.096,-0.476 0.087,-0.469 0.081,-0.46C0.074,-0.451 0.069,-0.441 0.065,-0.429C0.062,-0.418 0.06,-0.406 0.06,-0.395L0.06,-0.011C0.062,-0.009 0.063,-0.006 0.063,-0.003C0.063,0.001 0.062,0.004 0.059,0.006C0.056,0.009 0.053,0.01 0.05,0.01C0.046,0.01 0.043,0.009 0.041,0.006C0.038,0.004 0.037,0.001 0.037,-0.003C0.037,-0.006 0.038,-0.009 0.04,-0.011L0.04,-0.688C0.038,-0.691 0.037,-0.694 0.037,-0.697C0.037,-0.7 0.038,-0.703 0.041,-0.706C0.043,-0.709 0.046,-0.71 0.05,-0.71C0.053,-0.71 0.056,-0.709 0.059,-0.706C0.062,-0.703 0.063,-0.7 0.063,-0.697C0.063,-0.694 0.062,-0.691 0.06,-0.688L0.06,-0.463C0.069,-0.479 0.081,-0.491 0.095,-0.498C0.109,-0.506 0.125,-0.51 0.143,-0.51C0.163,-0.51 0.179,-0.506 0.193,-0.5C0.206,-0.493 0.216,-0.484 0.224,-0.474C0.232,-0.463 0.238,-0.451 0.241,-0.437C0.244,-0.423 0.246,-0.409 0.246,-0.395L0.246,-0.011Z" style="fill:rgb(217,126,74);fill-rule:nonzero;"/>
            </g>
            <g transform="matrix(128,0,0,128,143.272,359.388)">
                <path d="M0.063,-0.011C0.065,-0.009 0.066,-0.006 0.066,-0.003C0.066,0.001 0.065,0.004 0.062,0.006C0.06,0.009 0.057,0.01 0.053,0.01C0.05,0.01 0.047,0.009 0.044,0.006C0.041,0.004 0.04,0.001 0.04,-0.003C0.04,-0.006 0.041,-0.009 0.043,-0.011L0.043,-0.488C0.041,-0.491 0.04,-0.494 0.04,-0.497C0.04,-0.501 0.041,-0.504 0.044,-0.506C0.047,-0.509 0.05,-0.51 0.053,-0.51C0.057,-0.51 0.06,-0.509 0.062,-0.506C0.065,-0.504 0.066,-0.501 0.066,-0.497C0.066,-0.494 0.065,-0.491 0.063,-0.488L0.063,-0.011ZM0.063,-0.62C0.065,-0.618 0.066,-0.616 0.066,-0.612C0.066,-0.609 0.065,-0.606 0.062,-0.603C0.06,-0.6 0.057,-0.599 0.053,-0.599C0.05,-0.599 0.047,-0.6 0.044,-0.603C0.041,-0.606 0.04,-0.609 0.04,-0.612C0.04,-0.616 0.041,-0.618 0.043,-0.62L0.043,-0.649C0.041,-0.652 0.04,-0.655 0.04,-0.658C0.04,-0.662 0.041,-0.665 0.044,-0.667C0.047,-0.67 0.05,-0.671 0.053,-0.671C0.057,-0.671 0.06,-0.67 0.062,-0.667C0.065,-0.665 0.066,-0.662 0.066,-0.658C0.066,-0.655 0.065,-0.652 0.063,-0.649L0.063,-0.62Z" style="fill:rgb(217,126,74);fill-rule:nonzero;"/>
            </g>
            <g transform="matrix(128,0,0,128,156.71,359.388)">
                <path d="M0.091,-0.108C0.091,-0.096 0.092,-0.084 0.095,-0.073C0.097,-0.062 0.102,-0.052 0.108,-0.043C0.114,-0.035 0.122,-0.028 0.132,-0.022C0.142,-0.016 0.154,-0.014 0.169,-0.013C0.172,-0.015 0.175,-0.016 0.178,-0.016C0.182,-0.016 0.185,-0.015 0.187,-0.012C0.19,-0.01 0.191,-0.007 0.191,-0.003C0.191,0.001 0.19,0.004 0.187,0.006C0.185,0.009 0.182,0.01 0.178,0.01C0.175,0.01 0.172,0.009 0.169,0.007C0.15,0.006 0.135,0.002 0.122,-0.004C0.11,-0.011 0.1,-0.02 0.092,-0.031C0.084,-0.041 0.079,-0.053 0.076,-0.067C0.072,-0.08 0.071,-0.094 0.071,-0.108L0.071,-0.48L0.026,-0.48C0.024,-0.478 0.021,-0.477 0.018,-0.477C0.014,-0.477 0.011,-0.478 0.009,-0.481C0.006,-0.484 0.005,-0.487 0.005,-0.49C0.005,-0.494 0.006,-0.497 0.009,-0.499C0.011,-0.502 0.014,-0.503 0.018,-0.503C0.021,-0.503 0.024,-0.502 0.026,-0.5L0.071,-0.5L0.071,-0.649C0.069,-0.652 0.068,-0.655 0.068,-0.658C0.068,-0.662 0.069,-0.665 0.072,-0.667C0.074,-0.67 0.077,-0.671 0.081,-0.671C0.085,-0.671 0.088,-0.67 0.09,-0.667C0.093,-0.665 0.094,-0.662 0.094,-0.658C0.094,-0.656 0.093,-0.653 0.091,-0.649L0.091,-0.5L0.169,-0.5C0.172,-0.502 0.175,-0.503 0.178,-0.503C0.182,-0.503 0.185,-0.502 0.187,-0.499C0.19,-0.497 0.191,-0.494 0.191,-0.49C0.191,-0.487 0.19,-0.484 0.187,-0.481C0.185,-0.478 0.182,-0.477 0.178,-0.477C0.175,-0.477 0.172,-0.478 0.169,-0.48L0.091,-0.48L0.091,-0.108Z" style="fill:rgb(217,126,74);fill-rule:nonzero;"/>
            </g>
            <g transform="matrix(128,0,0,128,181.147,359.388)">
                <path d="M0.241,-0.281L0.055,-0.281L0.055,-0.105C0.055,-0.093 0.057,-0.082 0.059,-0.07C0.062,-0.059 0.067,-0.049 0.073,-0.04C0.079,-0.031 0.088,-0.024 0.099,-0.018C0.109,-0.013 0.123,-0.01 0.138,-0.01C0.153,-0.01 0.166,-0.012 0.177,-0.017C0.187,-0.022 0.196,-0.028 0.202,-0.036C0.208,-0.044 0.213,-0.054 0.216,-0.064C0.219,-0.074 0.221,-0.085 0.221,-0.096C0.22,-0.097 0.219,-0.098 0.219,-0.1C0.218,-0.102 0.218,-0.103 0.218,-0.104C0.218,-0.108 0.219,-0.111 0.222,-0.113C0.224,-0.116 0.227,-0.117 0.231,-0.117C0.235,-0.117 0.238,-0.116 0.24,-0.113C0.243,-0.111 0.244,-0.108 0.244,-0.104C0.244,-0.103 0.244,-0.102 0.243,-0.1C0.243,-0.098 0.242,-0.097 0.241,-0.096C0.24,-0.083 0.238,-0.069 0.234,-0.057C0.23,-0.044 0.225,-0.033 0.217,-0.023C0.209,-0.013 0.199,-0.005 0.186,0.001C0.173,0.007 0.157,0.01 0.138,0.01C0.119,0.01 0.102,0.006 0.089,-0C0.076,-0.007 0.065,-0.016 0.057,-0.026C0.049,-0.037 0.044,-0.049 0.04,-0.063C0.037,-0.077 0.035,-0.091 0.035,-0.105L0.035,-0.395C0.035,-0.409 0.037,-0.423 0.04,-0.437C0.044,-0.451 0.049,-0.463 0.057,-0.474C0.065,-0.484 0.076,-0.493 0.089,-0.5C0.102,-0.506 0.119,-0.51 0.138,-0.51C0.158,-0.51 0.174,-0.506 0.187,-0.5C0.2,-0.493 0.211,-0.484 0.219,-0.474C0.227,-0.463 0.233,-0.451 0.236,-0.437C0.24,-0.423 0.241,-0.409 0.241,-0.395L0.241,-0.281ZM0.221,-0.301L0.221,-0.395C0.221,-0.406 0.22,-0.418 0.217,-0.429C0.215,-0.441 0.21,-0.451 0.204,-0.46C0.198,-0.469 0.189,-0.476 0.178,-0.482C0.167,-0.487 0.154,-0.49 0.138,-0.49C0.123,-0.49 0.109,-0.487 0.099,-0.482C0.088,-0.476 0.079,-0.469 0.073,-0.46C0.067,-0.451 0.062,-0.441 0.059,-0.429C0.057,-0.418 0.055,-0.406 0.055,-0.395L0.055,-0.301L0.221,-0.301Z" style="fill:rgb(217,126,74);fill-rule:nonzero;"/>
            </g>
            <g transform="matrix(128,0,0,128,215.835,359.388)">
                <path d="M0.055,-0.105C0.055,-0.093 0.057,-0.082 0.059,-0.07C0.062,-0.059 0.067,-0.049 0.073,-0.04C0.079,-0.031 0.088,-0.024 0.099,-0.018C0.109,-0.013 0.123,-0.01 0.138,-0.01C0.153,-0.01 0.166,-0.012 0.176,-0.017C0.187,-0.022 0.195,-0.028 0.202,-0.036C0.209,-0.044 0.213,-0.053 0.217,-0.063C0.22,-0.073 0.222,-0.084 0.222,-0.095C0.221,-0.096 0.22,-0.097 0.22,-0.099C0.219,-0.101 0.219,-0.102 0.219,-0.104C0.219,-0.107 0.22,-0.11 0.223,-0.112C0.225,-0.115 0.228,-0.116 0.232,-0.116C0.236,-0.116 0.239,-0.115 0.241,-0.112C0.244,-0.11 0.245,-0.107 0.245,-0.104C0.245,-0.102 0.245,-0.101 0.244,-0.099C0.244,-0.097 0.243,-0.096 0.242,-0.095C0.241,-0.082 0.239,-0.068 0.235,-0.056C0.231,-0.043 0.225,-0.032 0.217,-0.022C0.208,-0.013 0.198,-0.005 0.185,0.001C0.172,0.007 0.157,0.01 0.138,0.01C0.119,0.01 0.102,0.006 0.089,-0C0.076,-0.007 0.065,-0.016 0.057,-0.026C0.049,-0.037 0.044,-0.049 0.04,-0.063C0.037,-0.077 0.035,-0.091 0.035,-0.105L0.035,-0.395C0.035,-0.409 0.037,-0.423 0.04,-0.437C0.044,-0.451 0.049,-0.463 0.057,-0.474C0.065,-0.484 0.076,-0.493 0.089,-0.5C0.102,-0.506 0.119,-0.51 0.138,-0.51C0.157,-0.51 0.172,-0.507 0.185,-0.501C0.198,-0.495 0.208,-0.487 0.217,-0.478C0.225,-0.468 0.231,-0.457 0.235,-0.444C0.239,-0.432 0.241,-0.418 0.242,-0.405C0.243,-0.404 0.244,-0.403 0.244,-0.401C0.245,-0.399 0.245,-0.398 0.245,-0.396C0.245,-0.393 0.244,-0.39 0.241,-0.388C0.239,-0.385 0.236,-0.384 0.232,-0.384C0.228,-0.384 0.225,-0.385 0.223,-0.388C0.22,-0.39 0.219,-0.393 0.219,-0.396C0.219,-0.399 0.22,-0.402 0.222,-0.404C0.222,-0.415 0.22,-0.425 0.217,-0.436C0.213,-0.446 0.209,-0.455 0.202,-0.463C0.195,-0.471 0.187,-0.478 0.176,-0.483C0.166,-0.488 0.153,-0.49 0.138,-0.49C0.123,-0.49 0.109,-0.487 0.099,-0.482C0.088,-0.476 0.079,-0.469 0.073,-0.46C0.067,-0.451 0.062,-0.441 0.059,-0.429C0.057,-0.418 0.055,-0.406 0.055,-0.395L0.055,-0.105Z" style="fill:rgb(217,126,74);fill-rule:nonzero;"/>
            </g>
            <g transform="matrix(128,0,0,128,249.522,359.388)">
                <path d="M0.091,-0.108C0.091,-0.096 0.092,-0.084 0.095,-0.073C0.097,-0.062 0.102,-0.052 0.108,-0.043C0.114,-0.035 0.122,-0.028 0.132,-0.022C0.142,-0.016 0.154,-0.014 0.169,-0.013C0.172,-0.015 0.175,-0.016 0.178,-0.016C0.182,-0.016 0.185,-0.015 0.187,-0.012C0.19,-0.01 0.191,-0.007 0.191,-0.003C0.191,0.001 0.19,0.004 0.187,0.006C0.185,0.009 0.182,0.01 0.178,0.01C0.175,0.01 0.172,0.009 0.169,0.007C0.15,0.006 0.135,0.002 0.122,-0.004C0.11,-0.011 0.1,-0.02 0.092,-0.031C0.084,-0.041 0.079,-0.053 0.076,-0.067C0.072,-0.08 0.071,-0.094 0.071,-0.108L0.071,-0.48L0.026,-0.48C0.024,-0.478 0.021,-0.477 0.018,-0.477C0.014,-0.477 0.011,-0.478 0.009,-0.481C0.006,-0.484 0.005,-0.487 0.005,-0.49C0.005,-0.494 0.006,-0.497 0.009,-0.499C0.011,-0.502 0.014,-0.503 0.018,-0.503C0.021,-0.503 0.024,-0.502 0.026,-0.5L0.071,-0.5L0.071,-0.649C0.069,-0.652 0.068,-0.655 0.068,-0.658C0.068,-0.662 0.069,-0.665 0.072,-0.667C0.074,-0.67 0.077,-0.671 0.081,-0.671C0.085,-0.671 0.088,-0.67 0.09,-0.667C0.093,-0.665 0.094,-0.662 0.094,-0.658C0.094,-0.656 0.093,-0.653 0.091,-0.649L0.091,-0.5L0.169,-0.5C0.172,-0.502 0.175,-0.503 0.178,-0.503C0.182,-0.503 0.185,-0.502 0.187,-0.499C0.19,-0.497 0.191,-0.494 0.191,-0.49C0.191,-0.487 0.19,-0.484 0.187,-0.481C0.185,-0.478 0.182,-0.477 0.178,-0.477C0.175,-0.477 0.172,-0.478 0.169,-0.48L0.091,-0.48L0.091,-0.108Z" style="fill:rgb(217,126,74);fill-rule:nonzero;"/>
            </g>
            <g transform="matrix(128,0,0,128,273.96,359.388)">
                <path d="M0.244,-0.011C0.246,-0.009 0.247,-0.006 0.247,-0.003C0.247,0.001 0.246,0.004 0.243,0.006C0.241,0.009 0.237,0.01 0.234,0.01C0.23,0.01 0.227,0.009 0.225,0.006C0.222,0.004 0.221,0.001 0.221,-0.003C0.221,-0.006 0.222,-0.009 0.224,-0.011L0.224,-0.037C0.215,-0.021 0.204,-0.009 0.191,-0.002C0.178,0.006 0.161,0.01 0.141,0.01C0.121,0.01 0.105,0.006 0.092,-0C0.078,-0.007 0.068,-0.016 0.06,-0.026C0.052,-0.037 0.046,-0.049 0.043,-0.063C0.04,-0.077 0.038,-0.091 0.038,-0.105L0.038,-0.488C0.036,-0.491 0.035,-0.494 0.035,-0.497C0.035,-0.501 0.036,-0.504 0.039,-0.506C0.041,-0.509 0.044,-0.51 0.048,-0.51C0.051,-0.51 0.055,-0.509 0.057,-0.506C0.06,-0.504 0.061,-0.501 0.061,-0.497C0.061,-0.494 0.06,-0.491 0.058,-0.488L0.058,-0.105C0.058,-0.094 0.059,-0.082 0.062,-0.071C0.065,-0.059 0.069,-0.049 0.075,-0.04C0.082,-0.031 0.09,-0.024 0.101,-0.018C0.111,-0.013 0.125,-0.01 0.141,-0.01C0.156,-0.01 0.168,-0.012 0.179,-0.017C0.19,-0.022 0.198,-0.029 0.205,-0.038C0.212,-0.046 0.216,-0.056 0.219,-0.067C0.223,-0.078 0.224,-0.089 0.224,-0.1L0.224,-0.488C0.222,-0.491 0.221,-0.494 0.221,-0.497C0.221,-0.501 0.222,-0.504 0.225,-0.506C0.227,-0.509 0.23,-0.51 0.234,-0.51C0.237,-0.51 0.241,-0.509 0.243,-0.506C0.246,-0.504 0.247,-0.501 0.247,-0.497C0.247,-0.494 0.246,-0.491 0.244,-0.488L0.244,-0.011Z" style="fill:rgb(217,126,74);fill-rule:nonzero;"/>
            </g>
            <g transform="matrix(128,0,0,128,310.335,359.388)">
                <path d="M0.06,-0.011C0.062,-0.009 0.063,-0.006 0.063,-0.003C0.063,0.001 0.062,0.004 0.059,0.006C0.056,0.009 0.053,0.01 0.05,0.01C0.046,0.01 0.043,0.009 0.041,0.006C0.038,0.004 0.037,0.001 0.037,-0.003C0.037,-0.006 0.038,-0.009 0.04,-0.011L0.04,-0.488C0.038,-0.491 0.037,-0.494 0.037,-0.497C0.037,-0.501 0.038,-0.504 0.041,-0.506C0.043,-0.509 0.046,-0.51 0.05,-0.51C0.053,-0.51 0.056,-0.509 0.059,-0.506C0.062,-0.504 0.063,-0.501 0.063,-0.497C0.063,-0.494 0.062,-0.491 0.06,-0.488L0.06,-0.453C0.069,-0.469 0.08,-0.48 0.093,-0.488C0.106,-0.496 0.123,-0.5 0.143,-0.5L0.16,-0.5C0.163,-0.502 0.166,-0.503 0.169,-0.503C0.173,-0.503 0.176,-0.502 0.178,-0.499C0.181,-0.497 0.182,-0.494 0.182,-0.49C0.182,-0.487 0.181,-0.484 0.178,-0.481C0.176,-0.478 0.173,-0.477 0.169,-0.477C0.166,-0.477 0.163,-0.478 0.16,-0.48L0.143,-0.48C0.129,-0.48 0.117,-0.477 0.106,-0.472C0.096,-0.466 0.087,-0.459 0.081,-0.45C0.074,-0.441 0.069,-0.43 0.065,-0.419C0.062,-0.408 0.06,-0.396 0.06,-0.385L0.06,-0.011Z" style="fill:rgb(217,126,74);fill-rule:nonzero;"/>
            </g>
            <g transform="matrix(128,0,0,128,334.397,359.388)">
                <path d="M0.241,-0.281L0.055,-0.281L0.055,-0.105C0.055,-0.093 0.057,-0.082 0.059,-0.07C0.062,-0.059 0.067,-0.049 0.073,-0.04C0.079,-0.031 0.088,-0.024 0.099,-0.018C0.109,-0.013 0.123,-0.01 0.138,-0.01C0.153,-0.01 0.166,-0.012 0.177,-0.017C0.187,-0.022 0.196,-0.028 0.202,-0.036C0.208,-0.044 0.213,-0.054 0.216,-0.064C0.219,-0.074 0.221,-0.085 0.221,-0.096C0.22,-0.097 0.219,-0.098 0.219,-0.1C0.218,-0.102 0.218,-0.103 0.218,-0.104C0.218,-0.108 0.219,-0.111 0.222,-0.113C0.224,-0.116 0.227,-0.117 0.231,-0.117C0.235,-0.117 0.238,-0.116 0.24,-0.113C0.243,-0.111 0.244,-0.108 0.244,-0.104C0.244,-0.103 0.244,-0.102 0.243,-0.1C0.243,-0.098 0.242,-0.097 0.241,-0.096C0.24,-0.083 0.238,-0.069 0.234,-0.057C0.23,-0.044 0.225,-0.033 0.217,-0.023C0.209,-0.013 0.199,-0.005 0.186,0.001C0.173,0.007 0.157,0.01 0.138,0.01C0.119,0.01 0.102,0.006 0.089,-0C0.076,-0.007 0.065,-0.016 0.057,-0.026C0.049,-0.037 0.044,-0.049 0.04,-0.063C0.037,-0.077 0.035,-0.091 0.035,-0.105L0.035,-0.395C0.035,-0.409 0.037,-0.423 0.04,-0.437C0.044,-0.451 0.049,-0.463 0.057,-0.474C0.065,-0.484 0.076,-0.493 0.089,-0.5C0.102,-0.506 0.119,-0.51 0.138,-0.51C0.158,-0.51 0.174,-0.506 0.187,-0.5C0.2,-0.493 0.211,-0.484 0.219,-0.474C0.227,-0.463 0.233,-0.451 0.236,-0.437C0.24,-0.423 0.241,-0.409 0.241,-0.395L0.241,-0.281ZM0.221,-0.301L0.221,-0.395C0.221,-0.406 0.22,-0.418 0.217,-0.429C0.215,-0.441 0.21,-0.451 0.204,-0.46C0.198,-0.469 0.189,-0.476 0.178,-0.482C0.167,-0.487 0.154,-0.49 0.138,-0.49C0.123,-0.49 0.109,-0.487 0.099,-0.482C0.088,-0.476 0.079,-0.469 0.073,-0.46C0.067,-0.451 0.062,-0.441 0.059,-0.429C0.057,-0.418 0.055,-0.406 0.055,-0.395L0.055,-0.301L0.221,-0.301Z" style="fill:rgb(217,126,74);fill-rule:nonzero;"/>
            </g>
        </g>
        <g transform="matrix(3.08409,0,0,3.08226,-26.5283,-352.255)">
            <g transform="matrix(112.113,0,0,112.113,27.0543,204.787)">
                <path d="M0.062,-0.011C0.064,-0.009 0.065,-0.006 0.065,-0.003C0.065,0.001 0.064,0.004 0.061,0.006C0.058,0.009 0.055,0.01 0.052,0.01C0.048,0.01 0.045,0.009 0.043,0.006C0.04,0.004 0.039,0.001 0.039,-0.003C0.039,-0.006 0.04,-0.009 0.042,-0.011L0.042,-0.587C0.042,-0.601 0.044,-0.615 0.047,-0.629C0.05,-0.642 0.056,-0.654 0.064,-0.665C0.072,-0.675 0.083,-0.684 0.096,-0.69C0.11,-0.697 0.127,-0.7 0.147,-0.7L0.228,-0.7C0.231,-0.702 0.234,-0.703 0.237,-0.703C0.24,-0.703 0.243,-0.702 0.246,-0.699C0.249,-0.697 0.25,-0.694 0.25,-0.69C0.25,-0.686 0.249,-0.683 0.246,-0.681C0.243,-0.678 0.24,-0.677 0.237,-0.677C0.234,-0.677 0.231,-0.678 0.228,-0.68L0.147,-0.68C0.13,-0.68 0.117,-0.677 0.106,-0.672C0.095,-0.667 0.086,-0.66 0.08,-0.651C0.073,-0.642 0.069,-0.632 0.066,-0.621C0.063,-0.61 0.062,-0.598 0.062,-0.587L0.062,-0.5L0.199,-0.5C0.202,-0.502 0.205,-0.503 0.208,-0.503C0.212,-0.503 0.215,-0.502 0.217,-0.499C0.22,-0.497 0.221,-0.494 0.221,-0.49C0.221,-0.487 0.22,-0.484 0.217,-0.481C0.215,-0.478 0.212,-0.477 0.208,-0.477C0.205,-0.477 0.202,-0.478 0.199,-0.48L0.062,-0.48L0.062,-0.011Z" style="fill:rgb(242,242,242);fill-rule:nonzero;"/>
            </g>
            <g transform="matrix(112.113,0,0,112.113,55.7394,204.787)">
                <path d="M0.244,-0.015C0.246,-0.014 0.249,-0.013 0.251,-0.01C0.253,-0.007 0.253,-0.004 0.253,-0C0.252,0.003 0.25,0.006 0.246,0.008C0.243,0.01 0.24,0.011 0.237,0.01C0.233,0.008 0.231,0.007 0.229,0.004C0.228,0.002 0.227,0.001 0.227,-0C0.227,-0.002 0.227,-0.003 0.227,-0.005L0.112,-0.2L0.063,-0.2L0.063,-0.011C0.065,-0.009 0.066,-0.006 0.066,-0.003C0.066,0.001 0.065,0.004 0.062,0.006C0.06,0.009 0.057,0.01 0.053,0.01C0.05,0.01 0.047,0.009 0.044,0.006C0.041,0.004 0.04,0.001 0.04,-0.003C0.04,-0.006 0.041,-0.009 0.043,-0.011L0.043,-0.7L0.15,-0.7C0.17,-0.7 0.186,-0.697 0.199,-0.69C0.213,-0.684 0.223,-0.675 0.231,-0.665C0.24,-0.654 0.245,-0.642 0.249,-0.628C0.252,-0.614 0.254,-0.6 0.254,-0.586L0.254,-0.311C0.254,-0.297 0.252,-0.283 0.249,-0.27C0.245,-0.256 0.24,-0.244 0.231,-0.234C0.223,-0.224 0.213,-0.216 0.199,-0.209C0.186,-0.203 0.17,-0.2 0.15,-0.2L0.135,-0.2L0.244,-0.015ZM0.15,-0.22C0.166,-0.22 0.179,-0.223 0.19,-0.228C0.201,-0.233 0.209,-0.24 0.216,-0.248C0.222,-0.257 0.227,-0.266 0.23,-0.277C0.233,-0.288 0.234,-0.299 0.234,-0.311L0.234,-0.586C0.234,-0.597 0.233,-0.609 0.23,-0.62C0.227,-0.631 0.222,-0.641 0.216,-0.65C0.209,-0.659 0.201,-0.666 0.19,-0.672C0.179,-0.677 0.166,-0.68 0.15,-0.68L0.063,-0.68L0.063,-0.22L0.15,-0.22Z" style="fill:rgb(242,242,242);fill-rule:nonzero;"/>
            </g>
            <g transform="matrix(112.113,0,0,112.113,87.5996,204.787)">
                <path d="M0.251,-0.108C0.251,-0.074 0.242,-0.047 0.224,-0.028C0.207,-0.009 0.181,-0 0.146,-0L0.043,-0L0.043,-0.7L0.144,-0.7C0.163,-0.7 0.179,-0.697 0.191,-0.692C0.204,-0.686 0.214,-0.679 0.221,-0.669C0.229,-0.66 0.234,-0.649 0.237,-0.636C0.241,-0.624 0.242,-0.61 0.242,-0.596C0.242,-0.585 0.241,-0.575 0.24,-0.564C0.238,-0.553 0.235,-0.543 0.232,-0.534C0.228,-0.524 0.223,-0.516 0.217,-0.508C0.21,-0.5 0.202,-0.494 0.193,-0.49C0.204,-0.485 0.213,-0.479 0.22,-0.472C0.227,-0.465 0.233,-0.457 0.238,-0.448C0.243,-0.439 0.246,-0.429 0.248,-0.419C0.25,-0.408 0.251,-0.397 0.251,-0.386L0.251,-0.108ZM0.146,-0.02C0.174,-0.02 0.196,-0.028 0.21,-0.044C0.224,-0.059 0.231,-0.081 0.231,-0.109L0.231,-0.386C0.231,-0.398 0.23,-0.409 0.227,-0.421C0.224,-0.432 0.219,-0.442 0.213,-0.451C0.206,-0.459 0.197,-0.467 0.186,-0.472C0.175,-0.477 0.161,-0.48 0.144,-0.48L0.063,-0.48L0.063,-0.02L0.146,-0.02ZM0.144,-0.5C0.16,-0.5 0.173,-0.503 0.183,-0.508C0.193,-0.514 0.201,-0.521 0.207,-0.53C0.213,-0.539 0.217,-0.55 0.219,-0.561C0.221,-0.573 0.222,-0.584 0.222,-0.596C0.222,-0.608 0.221,-0.618 0.218,-0.629C0.216,-0.639 0.211,-0.648 0.205,-0.656C0.199,-0.663 0.191,-0.669 0.181,-0.674C0.171,-0.678 0.159,-0.68 0.144,-0.68L0.063,-0.68L0.063,-0.5L0.144,-0.5Z" style="fill:rgb(242,242,242);fill-rule:nonzero;"/>
            </g>
        </g>
    </g>
</svg>
