<?xml version="1.0" encoding="UTF-8" standalone="no"?>
<!DOCTYPE svg PUBLIC "-//W3C//DTD SVG 1.1//EN" "http://www.w3.org/Graphics/SVG/1.1/DTD/svg11.dtd">
<svg width="100%" height="100%" viewBox="0 0 228 282" version="1.1" xmlns="http://www.w3.org/2000/svg" xmlns:xlink="http://www.w3.org/1999/xlink" xml:space="preserve" xmlns:serif="http://www.serif.com/" style="fill-rule:evenodd;clip-rule:evenodd;stroke-linejoin:round;stroke-miterlimit:2;">
    <g transform="matrix(1,0,0,1,-524.971,-499.062)">
        <path d="M665.195,705.459C665.879,705.654 666.563,706.191 667.246,707.07C667.832,707.949 668.003,708.901 667.759,709.927C667.515,710.952 666.855,711.758 665.781,712.344C665,713.027 664.072,713.198 662.998,712.856C661.924,712.515 661.143,711.953 660.654,711.172C660.361,710.684 660.19,710.244 660.142,709.853C660.093,709.463 660.068,709.023 660.068,708.535L625.498,649.941L610.85,649.941L610.85,706.631C611.436,707.412 611.729,708.242 611.729,709.121C611.729,710.195 611.362,711.099 610.63,711.831C609.897,712.563 608.994,712.93 607.92,712.93C606.846,712.93 605.918,712.563 605.137,711.831C604.355,711.099 603.965,710.195 603.965,709.121C603.965,708.242 604.258,707.412 604.844,706.631L604.844,499.941L636.924,499.941C642.881,499.941 647.837,500.918 651.792,502.871C655.747,504.824 658.945,507.412 661.387,510.635C663.828,513.857 665.562,517.519 666.587,521.621C667.612,525.723 668.125,529.922 668.125,534.219L668.125,616.689C668.125,620.986 667.612,625.137 666.587,629.141C665.562,633.144 663.828,636.685 661.387,639.761C658.945,642.837 655.747,645.303 651.792,647.158C647.837,649.014 642.881,649.941 636.924,649.941L632.383,649.941L665.195,705.459ZM533.799,706.631C534.385,707.412 534.678,708.242 534.678,709.121C534.678,710.195 534.287,711.099 533.506,711.831C532.725,712.563 531.797,712.93 530.723,712.93C529.648,712.93 528.745,712.563 528.013,711.831C527.28,711.099 526.914,710.195 526.914,709.121C526.914,708.242 527.207,707.412 527.793,706.631L527.793,533.926C527.793,529.629 528.281,525.454 529.258,521.401C530.234,517.349 531.943,513.735 534.385,510.561C536.826,507.388 540.073,504.824 544.126,502.871C548.179,500.918 553.232,499.941 559.287,499.941L583.604,499.941C584.482,499.355 585.361,499.062 586.24,499.062C587.314,499.062 588.242,499.453 589.023,500.234C589.805,501.016 590.195,501.943 590.195,503.018C590.195,504.092 589.805,505.019 589.023,505.801C588.242,506.582 587.314,506.973 586.24,506.973C585.459,506.973 584.58,506.631 583.604,505.947L559.287,505.947C554.307,505.947 550.181,506.753 546.909,508.364C543.638,509.976 541.025,512.1 539.072,514.736C537.119,517.373 535.752,520.376 534.971,523.745C534.189,527.114 533.799,530.508 533.799,533.926L533.799,560L574.961,560C575.84,559.414 576.719,559.121 577.598,559.121C578.672,559.121 579.6,559.487 580.381,560.22C581.162,560.952 581.553,561.855 581.553,562.93C581.553,564.004 581.162,564.932 580.381,565.713C579.6,566.494 578.672,566.885 577.598,566.885C576.719,566.885 575.84,566.592 574.961,566.006L533.799,566.006L533.799,706.631ZM752.5,677.627C752.5,687.881 749.839,695.84 744.517,701.504C739.194,707.168 731.357,710 721.006,710L690.098,710L690.098,499.941L720.42,499.941C726.084,499.941 730.796,500.771 734.556,502.432C738.315,504.092 741.318,506.338 743.564,509.17C745.811,512.002 747.422,515.322 748.398,519.131C749.375,522.939 749.863,526.943 749.863,531.143C749.863,534.365 749.619,537.588 749.131,540.81C748.643,544.033 747.837,547.06 746.714,549.893C745.591,552.725 744.077,555.288 742.173,557.583C740.269,559.878 737.9,561.66 735.068,562.93C738.291,564.394 741.001,566.201 743.198,568.35C745.396,570.498 747.202,572.915 748.618,575.601C750.034,578.286 751.035,581.216 751.621,584.39C752.207,587.563 752.5,590.81 752.5,594.131L752.5,677.627ZM721.006,703.994C729.502,703.994 735.874,701.626 740.122,696.89C744.37,692.153 746.494,685.635 746.494,677.334L746.494,594.131C746.494,590.615 746.079,587.173 745.249,583.804C744.419,580.435 743.003,577.432 741.001,574.795C738.999,572.158 736.313,570.034 732.944,568.423C729.575,566.811 725.4,566.006 720.42,566.006L696.104,566.006L696.104,703.994L721.006,703.994ZM636.924,643.935C641.709,643.935 645.713,643.179 648.936,641.665C652.158,640.151 654.746,638.125 656.699,635.586C658.652,633.047 660.044,630.142 660.874,626.87C661.704,623.599 662.119,620.205 662.119,616.689L662.119,534.219C662.119,530.801 661.704,527.407 660.874,524.038C660.044,520.669 658.652,517.642 656.699,514.956C654.746,512.27 652.158,510.098 648.936,508.437C645.713,506.777 641.709,505.947 636.924,505.947L610.85,505.947L610.85,643.935L636.924,643.935ZM720.42,560C725.205,560 729.111,559.17 732.139,557.51C735.166,555.85 737.559,553.652 739.316,550.918C741.074,548.184 742.271,545.083 742.905,541.616C743.54,538.149 743.857,534.658 743.857,531.143C743.857,527.725 743.467,524.477 742.686,521.401C741.904,518.325 740.61,515.64 738.804,513.345C736.997,511.05 734.58,509.243 731.553,507.925C728.525,506.606 724.814,505.947 720.42,505.947L696.104,505.947L696.104,560L720.42,560Z" style="fill:rgb(189,36,36);fill-rule:nonzero;"/>
        <path d="M542.467,778.731C542.657,778.975 542.752,779.205 542.752,779.422C542.752,779.721 542.644,779.972 542.427,780.175C542.21,780.379 541.952,780.48 541.654,780.48C541.355,780.48 541.098,780.379 540.881,780.175C540.664,779.972 540.555,779.721 540.555,779.422C540.555,779.178 540.636,778.948 540.799,778.731L540.799,776.981C540.067,778.039 539.151,778.887 538.053,779.524C536.954,780.162 535.564,780.48 533.882,780.48C532.254,780.48 530.891,780.202 529.792,779.646C528.694,779.09 527.812,778.365 527.148,777.469C526.483,776.574 526.008,775.557 525.723,774.418C525.439,773.278 525.296,772.112 525.296,770.918L525.296,764.164C525.296,762.97 525.425,761.804 525.683,760.664C525.94,759.525 526.442,758.508 527.188,757.613C527.934,756.717 529.006,755.992 530.403,755.436C531.8,754.88 533.638,754.601 535.916,754.601L540.799,754.601L540.799,746.748C540.799,745.799 540.684,744.849 540.453,743.9C540.223,742.951 539.843,742.103 539.314,741.357C538.785,740.611 538.073,740.001 537.178,739.526C536.283,739.051 535.184,738.814 533.882,738.814C532.634,738.814 531.576,739.024 530.708,739.444C529.84,739.865 529.128,740.407 528.572,741.072C528.016,741.737 527.602,742.503 527.331,743.371C527.059,744.239 526.91,745.121 526.883,746.016C527.073,746.206 527.168,746.423 527.168,746.667C527.168,746.911 527.059,747.142 526.842,747.359C526.625,747.576 526.368,747.684 526.069,747.684C525.771,747.684 525.513,747.576 525.296,747.359C525.079,747.142 524.971,746.911 524.971,746.667C524.971,746.531 524.991,746.396 525.032,746.26C525.072,746.124 525.133,746.016 525.215,745.934C525.296,744.795 525.5,743.703 525.825,742.659C526.151,741.615 526.659,740.685 527.351,739.872C528.043,739.058 528.918,738.407 529.976,737.919C531.034,737.43 532.336,737.186 533.882,737.186C535.509,737.186 536.873,737.464 537.971,738.02C539.07,738.576 539.951,739.302 540.616,740.197C541.281,741.092 541.755,742.11 542.04,743.249C542.325,744.388 542.467,745.555 542.467,746.748L542.467,778.731ZM612.17,778.731C612.332,778.948 612.414,779.178 612.414,779.422C612.414,779.721 612.312,779.972 612.109,780.175C611.905,780.379 611.654,780.48 611.356,780.48C611.057,780.48 610.8,780.379 610.583,780.175C610.366,779.972 610.257,779.721 610.257,779.422C610.257,779.178 610.339,778.948 610.501,778.731L610.501,739.017C610.339,738.746 610.257,738.488 610.257,738.244C610.257,737.946 610.366,737.695 610.583,737.491C610.8,737.288 611.057,737.186 611.356,737.186C611.654,737.186 611.905,737.288 612.109,737.491C612.312,737.695 612.414,737.946 612.414,738.244C612.414,738.488 612.332,738.746 612.17,739.017L612.17,778.731ZM550.646,778.731C550.809,778.948 550.89,779.178 550.89,779.422C550.89,779.721 550.782,779.972 550.565,780.175C550.348,780.379 550.09,780.48 549.792,780.48C549.493,780.48 549.242,780.379 549.039,780.175C548.835,779.972 548.734,779.721 548.734,779.422C548.734,779.178 548.815,778.948 548.978,778.731L548.978,739.017C548.815,738.746 548.734,738.488 548.734,738.244C548.734,737.946 548.835,737.695 549.039,737.491C549.242,737.288 549.493,737.186 549.792,737.186C550.09,737.186 550.348,737.288 550.565,737.491C550.782,737.695 550.89,737.946 550.89,738.244C550.89,738.488 550.809,738.746 550.646,739.017L550.646,741.906C551.406,740.604 552.328,739.628 553.413,738.976C554.498,738.325 555.882,738 557.563,738L558.988,738C559.232,737.837 559.476,737.756 559.72,737.756C560.018,737.756 560.276,737.858 560.493,738.061C560.71,738.264 560.819,738.515 560.819,738.814C560.819,739.112 560.71,739.37 560.493,739.587C560.276,739.804 560.018,739.912 559.72,739.912C559.476,739.912 559.232,739.831 558.988,739.668L557.563,739.668C556.397,739.668 555.38,739.899 554.512,740.36C553.644,740.821 552.925,741.431 552.355,742.191C551.785,742.951 551.358,743.798 551.073,744.734C550.789,745.67 550.646,746.626 550.646,747.603L550.646,778.731ZM712.349,778.731C712.511,778.948 712.593,779.178 712.593,779.422C712.593,779.721 712.484,779.972 712.267,780.175C712.05,780.379 711.793,780.48 711.494,780.48C711.196,780.48 710.945,780.379 710.741,780.175C710.538,779.972 710.436,779.721 710.436,779.422C710.436,779.178 710.518,778.948 710.68,778.731L710.68,776.574C709.921,777.903 708.998,778.887 707.913,779.524C706.828,780.162 705.445,780.48 703.763,780.48C702.108,780.48 700.732,780.202 699.633,779.646C698.534,779.09 697.653,778.365 696.988,777.469C696.324,776.574 695.856,775.557 695.584,774.418C695.313,773.278 695.177,772.112 695.177,770.918L695.177,739.017C695.015,738.746 694.933,738.488 694.933,738.244C694.933,737.946 695.035,737.695 695.238,737.491C695.442,737.288 695.693,737.186 695.991,737.186C696.29,737.186 696.547,737.288 696.764,737.491C696.981,737.695 697.09,737.946 697.09,738.244C697.09,738.488 697.008,738.746 696.846,739.017L696.846,770.918C696.846,771.868 696.954,772.817 697.171,773.767C697.388,774.716 697.761,775.57 698.29,776.33C698.819,777.09 699.524,777.7 700.406,778.161C701.288,778.622 702.407,778.853 703.763,778.853C704.984,778.853 706.035,778.643 706.917,778.222C707.798,777.802 708.517,777.239 709.073,776.533C709.629,775.828 710.036,775.021 710.294,774.112C710.551,773.204 710.68,772.275 710.68,771.325L710.68,739.017C710.518,738.746 710.436,738.488 710.436,738.244C710.436,737.946 710.538,737.695 710.741,737.491C710.945,737.288 711.196,737.186 711.494,737.186C711.793,737.186 712.05,737.288 712.267,737.491C712.484,737.695 712.593,737.946 712.593,738.244C712.593,738.488 712.511,738.746 712.349,739.017L712.349,778.731ZM720.69,778.731C720.853,778.948 720.934,779.178 720.934,779.422C720.934,779.721 720.826,779.972 720.609,780.175C720.392,780.379 720.134,780.48 719.836,780.48C719.537,780.48 719.286,780.379 719.083,780.175C718.879,779.972 718.778,779.721 718.778,779.422C718.778,779.178 718.859,778.948 719.022,778.731L719.022,739.017C718.859,738.746 718.778,738.488 718.778,738.244C718.778,737.946 718.879,737.695 719.083,737.491C719.286,737.288 719.537,737.186 719.836,737.186C720.134,737.186 720.392,737.288 720.609,737.491C720.826,737.695 720.934,737.946 720.934,738.244C720.934,738.488 720.853,738.746 720.69,739.017L720.69,741.906C721.45,740.604 722.372,739.628 723.457,738.976C724.542,738.325 725.926,738 727.607,738L729.032,738C729.276,737.837 729.52,737.756 729.764,737.756C730.062,737.756 730.32,737.858 730.537,738.061C730.754,738.264 730.863,738.515 730.863,738.814C730.863,739.112 730.754,739.37 730.537,739.587C730.32,739.804 730.062,739.912 729.764,739.912C729.52,739.912 729.276,739.831 729.032,739.668L727.607,739.668C726.441,739.668 725.424,739.899 724.556,740.36C723.688,740.821 722.969,741.431 722.399,742.191C721.829,742.951 721.402,743.798 721.117,744.734C720.833,745.67 720.69,746.626 720.69,747.603L720.69,778.731ZM658.76,770.918C658.76,771.895 658.875,772.858 659.106,773.807C659.336,774.757 659.716,775.604 660.245,776.35C660.774,777.096 661.486,777.7 662.381,778.161C663.276,778.622 664.375,778.853 665.677,778.853C666.925,778.853 667.983,778.656 668.851,778.263C669.719,777.869 670.431,777.34 670.987,776.676C671.543,776.011 671.95,775.252 672.208,774.397C672.466,773.543 672.622,772.654 672.676,771.732C672.594,771.651 672.533,771.542 672.493,771.407C672.452,771.271 672.432,771.135 672.432,771C672.432,770.755 672.533,770.525 672.737,770.308C672.94,770.091 673.191,769.982 673.49,769.982C673.788,769.982 674.046,770.091 674.263,770.308C674.48,770.525 674.588,770.755 674.588,771C674.588,771.135 674.568,771.271 674.527,771.407C674.486,771.542 674.425,771.651 674.344,771.732C674.263,772.871 674.059,773.963 673.734,775.008C673.408,776.052 672.9,776.981 672.208,777.795C671.516,778.609 670.641,779.26 669.583,779.748C668.525,780.236 667.223,780.48 665.677,780.48C664.049,780.48 662.686,780.202 661.588,779.646C660.489,779.09 659.607,778.365 658.943,777.469C658.278,776.574 657.804,775.557 657.519,774.418C657.234,773.278 657.091,772.112 657.091,770.918L657.091,746.748C657.091,745.555 657.234,744.388 657.519,743.249C657.804,742.11 658.278,741.092 658.943,740.197C659.607,739.302 660.489,738.576 661.588,738.02C662.686,737.464 664.049,737.186 665.677,737.186C667.223,737.186 668.525,737.43 669.583,737.919C670.641,738.407 671.516,739.058 672.208,739.872C672.9,740.685 673.408,741.615 673.734,742.659C674.059,743.703 674.263,744.795 674.344,745.934C674.425,746.016 674.486,746.124 674.527,746.26C674.568,746.396 674.588,746.531 674.588,746.667C674.588,746.911 674.48,747.142 674.263,747.359C674.046,747.576 673.788,747.684 673.49,747.684C673.191,747.684 672.94,747.576 672.737,747.359C672.533,747.142 672.432,746.911 672.432,746.667C672.432,746.396 672.513,746.179 672.676,746.016C672.622,745.121 672.466,744.239 672.208,743.371C671.95,742.503 671.543,741.737 670.987,741.072C670.431,740.407 669.719,739.865 668.851,739.444C667.983,739.024 666.925,738.814 665.677,738.814C664.375,738.814 663.276,739.051 662.381,739.526C661.486,740.001 660.774,740.611 660.245,741.357C659.716,742.103 659.336,742.951 659.106,743.9C658.875,744.849 658.76,745.799 658.76,746.748L658.76,770.918ZM651.68,756.27L636.177,756.27L636.177,770.918C636.177,771.895 636.292,772.858 636.523,773.807C636.753,774.757 637.133,775.604 637.662,776.35C638.191,777.096 638.903,777.7 639.798,778.161C640.693,778.622 641.792,778.853 643.094,778.853C644.369,778.853 645.441,778.649 646.309,778.242C647.177,777.836 647.875,777.3 648.404,776.635C648.933,775.971 649.32,775.204 649.564,774.336C649.808,773.468 649.957,772.573 650.011,771.651C649.93,771.569 649.862,771.461 649.808,771.325C649.754,771.189 649.727,771.081 649.727,771C649.727,770.701 649.835,770.444 650.052,770.226C650.269,770.009 650.527,769.901 650.825,769.901C651.124,769.901 651.381,770.009 651.598,770.226C651.815,770.444 651.924,770.701 651.924,771C651.924,771.081 651.903,771.189 651.863,771.325C651.822,771.461 651.761,771.569 651.68,771.651C651.598,772.79 651.402,773.889 651.09,774.947C650.778,776.004 650.296,776.94 649.645,777.754C648.994,778.568 648.133,779.226 647.061,779.728C645.99,780.229 644.667,780.48 643.094,780.48C641.466,780.48 640.103,780.202 639.005,779.646C637.906,779.09 637.024,778.365 636.36,777.469C635.695,776.574 635.221,775.557 634.936,774.418C634.651,773.278 634.508,772.112 634.508,770.918L634.508,746.748C634.508,745.555 634.651,744.388 634.936,743.249C635.221,742.11 635.695,741.092 636.36,740.197C637.024,739.302 637.906,738.576 639.005,738.02C640.103,737.464 641.466,737.186 643.094,737.186C644.722,737.186 646.078,737.464 647.163,738.02C648.248,738.576 649.13,739.302 649.808,740.197C650.486,741.092 650.968,742.11 651.252,743.249C651.537,744.388 651.68,745.555 651.68,746.748L651.68,756.27ZM751.452,756.27L735.949,756.27L735.949,770.918C735.949,771.895 736.064,772.858 736.295,773.807C736.525,774.757 736.905,775.604 737.434,776.35C737.963,777.096 738.675,777.7 739.57,778.161C740.465,778.622 741.564,778.853 742.866,778.853C744.141,778.853 745.213,778.649 746.081,778.242C746.949,777.836 747.647,777.3 748.176,776.635C748.705,775.971 749.092,775.204 749.336,774.336C749.58,773.468 749.729,772.573 749.784,771.651C749.702,771.569 749.634,771.461 749.58,771.325C749.526,771.189 749.499,771.081 749.499,771C749.499,770.701 749.607,770.444 749.824,770.226C750.041,770.009 750.299,769.901 750.597,769.901C750.896,769.901 751.153,770.009 751.37,770.226C751.587,770.444 751.696,770.701 751.696,771C751.696,771.081 751.676,771.189 751.635,771.325C751.594,771.461 751.533,771.569 751.452,771.651C751.37,772.79 751.174,773.889 750.862,774.947C750.55,776.004 750.068,776.94 749.417,777.754C748.766,778.568 747.905,779.226 746.833,779.728C745.762,780.229 744.44,780.48 742.866,780.48C741.239,780.48 739.875,780.202 738.777,779.646C737.678,779.09 736.797,778.365 736.132,777.469C735.467,776.574 734.993,775.557 734.708,774.418C734.423,773.278 734.281,772.112 734.281,770.918L734.281,746.748C734.281,745.555 734.423,744.388 734.708,743.249C734.993,742.11 735.467,741.092 736.132,740.197C736.797,739.302 737.678,738.576 738.777,738.02C739.875,737.464 741.239,737.186 742.866,737.186C744.494,737.186 745.85,737.464 746.935,738.02C748.02,738.576 748.902,739.302 749.58,740.197C750.258,741.092 750.74,742.11 751.025,743.249C751.309,744.388 751.452,745.555 751.452,746.748L751.452,756.27ZM565.905,770.918C565.905,771.895 566.02,772.858 566.251,773.807C566.481,774.757 566.861,775.604 567.39,776.35C567.919,777.096 568.631,777.7 569.526,778.161C570.422,778.622 571.52,778.853 572.822,778.853C574.07,778.853 575.128,778.656 575.996,778.263C576.864,777.869 577.576,777.34 578.132,776.676C578.688,776.011 579.095,775.252 579.353,774.397C579.611,773.543 579.767,772.654 579.821,771.732C579.74,771.651 579.679,771.542 579.638,771.407C579.597,771.271 579.577,771.135 579.577,771C579.577,770.755 579.679,770.525 579.882,770.308C580.085,770.091 580.336,769.982 580.635,769.982C580.933,769.982 581.191,770.091 581.408,770.308C581.625,770.525 581.733,770.755 581.733,771C581.733,771.135 581.713,771.271 581.672,771.407C581.632,771.542 581.571,771.651 581.489,771.732C581.408,772.871 581.204,773.963 580.879,775.008C580.553,776.052 580.045,776.981 579.353,777.795C578.661,778.609 577.786,779.26 576.729,779.748C575.671,780.236 574.368,780.48 572.822,780.48C571.195,780.48 569.832,780.202 568.733,779.646C567.634,779.09 566.753,778.365 566.088,777.469C565.423,776.574 564.949,775.557 564.664,774.418C564.379,773.278 564.237,772.112 564.237,770.918L564.237,746.748C564.237,745.555 564.379,744.388 564.664,743.249C564.949,742.11 565.423,741.092 566.088,740.197C566.753,739.302 567.634,738.576 568.733,738.02C569.832,737.464 571.195,737.186 572.822,737.186C574.368,737.186 575.671,737.43 576.729,737.919C577.786,738.407 578.661,739.058 579.353,739.872C580.045,740.685 580.553,741.615 580.879,742.659C581.204,743.703 581.408,744.795 581.489,745.934C581.571,746.016 581.632,746.124 581.672,746.26C581.713,746.396 581.733,746.531 581.733,746.667C581.733,746.911 581.625,747.142 581.408,747.359C581.191,747.576 580.933,747.684 580.635,747.684C580.336,747.684 580.085,747.576 579.882,747.359C579.679,747.142 579.577,746.911 579.577,746.667C579.577,746.396 579.658,746.179 579.821,746.016C579.767,745.121 579.611,744.239 579.353,743.371C579.095,742.503 578.688,741.737 578.132,741.072C577.576,740.407 576.864,739.865 575.996,739.444C575.128,739.024 574.07,738.814 572.822,738.814C571.52,738.814 570.422,739.051 569.526,739.526C568.631,740.001 567.919,740.611 567.39,741.357C566.861,742.103 566.481,742.951 566.251,743.9C566.02,744.849 565.905,745.799 565.905,746.748L565.905,770.918ZM623.237,770.674C623.237,771.678 623.346,772.641 623.563,773.563C623.78,774.485 624.139,775.313 624.641,776.045C625.143,776.778 625.814,777.374 626.655,777.836C627.496,778.297 628.527,778.541 629.748,778.568C629.992,778.405 630.25,778.324 630.521,778.324C630.819,778.324 631.07,778.432 631.274,778.649C631.477,778.866 631.579,779.124 631.579,779.422C631.579,779.721 631.477,779.972 631.274,780.175C631.07,780.379 630.819,780.48 630.521,780.48C630.25,780.48 629.992,780.399 629.748,780.236C628.201,780.182 626.906,779.87 625.862,779.3C624.817,778.731 623.977,778.005 623.339,777.123C622.702,776.242 622.247,775.238 621.976,774.112C621.705,772.987 621.569,771.841 621.569,770.674L621.569,739.668L617.826,739.668C617.663,739.831 617.446,739.912 617.174,739.912C616.876,739.912 616.618,739.804 616.401,739.587C616.184,739.37 616.076,739.112 616.076,738.814C616.076,738.515 616.184,738.264 616.401,738.061C616.618,737.858 616.876,737.756 617.174,737.756C617.446,737.756 617.663,737.837 617.826,738L621.569,738L621.569,725.589C621.406,725.318 621.325,725.06 621.325,724.816C621.325,724.518 621.433,724.267 621.65,724.064C621.867,723.86 622.125,723.758 622.424,723.758C622.722,723.758 622.98,723.86 623.197,724.064C623.414,724.267 623.522,724.518 623.522,724.816C623.522,725.006 623.427,725.264 623.237,725.589L623.237,738L629.748,738C629.992,737.837 630.25,737.756 630.521,737.756C630.819,737.756 631.07,737.858 631.274,738.061C631.477,738.264 631.579,738.515 631.579,738.814C631.579,739.112 631.477,739.37 631.274,739.587C631.07,739.804 630.819,739.912 630.521,739.912C630.25,739.912 629.992,739.831 629.748,739.668L623.237,739.668L623.237,770.674ZM683.662,770.674C683.662,771.678 683.771,772.641 683.988,773.563C684.205,774.485 684.564,775.313 685.066,776.045C685.568,776.778 686.239,777.374 687.08,777.836C687.921,778.297 688.952,778.541 690.173,778.568C690.417,778.405 690.674,778.324 690.946,778.324C691.244,778.324 691.495,778.432 691.698,778.649C691.902,778.866 692.004,779.124 692.004,779.422C692.004,779.721 691.902,779.972 691.698,780.175C691.495,780.379 691.244,780.48 690.946,780.48C690.674,780.48 690.417,780.399 690.173,780.236C688.626,780.182 687.331,779.87 686.287,779.3C685.242,778.731 684.401,778.005 683.764,777.123C683.126,776.242 682.672,775.238 682.401,774.112C682.129,772.987 681.994,771.841 681.994,770.674L681.994,739.668L678.25,739.668C678.088,739.831 677.871,739.912 677.599,739.912C677.301,739.912 677.043,739.804 676.826,739.587C676.609,739.37 676.501,739.112 676.501,738.814C676.501,738.515 676.609,738.264 676.826,738.061C677.043,737.858 677.301,737.756 677.599,737.756C677.871,737.756 678.088,737.837 678.25,738L681.994,738L681.994,725.589C681.831,725.318 681.75,725.06 681.75,724.816C681.75,724.518 681.858,724.267 682.075,724.064C682.292,723.86 682.55,723.758 682.848,723.758C683.147,723.758 683.404,723.86 683.621,724.064C683.838,724.267 683.947,724.518 683.947,724.816C683.947,725.006 683.852,725.264 683.662,725.589L683.662,738L690.173,738C690.417,737.837 690.674,737.756 690.946,737.756C691.244,737.756 691.495,737.858 691.698,738.061C691.902,738.264 692.004,738.515 692.004,738.814C692.004,739.112 691.902,739.37 691.698,739.587C691.495,739.804 691.244,739.912 690.946,739.912C690.674,739.912 690.417,739.831 690.173,739.668L683.662,739.668L683.662,770.674ZM603.747,778.731C603.91,778.948 603.991,779.178 603.991,779.422C603.991,779.721 603.882,779.972 603.665,780.175C603.448,780.379 603.191,780.48 602.892,780.48C602.594,780.48 602.343,780.379 602.139,780.175C601.936,779.972 601.834,779.721 601.834,779.422C601.834,779.178 601.916,778.948 602.078,778.731L602.078,746.748C602.078,745.799 601.97,744.849 601.753,743.9C601.536,742.951 601.163,742.103 600.634,741.357C600.105,740.611 599.4,740.001 598.518,739.526C597.636,739.051 596.517,738.814 595.161,738.814C593.995,738.814 592.977,739.051 592.109,739.526C591.241,740.001 590.522,740.611 589.953,741.357C589.383,742.103 588.956,742.951 588.671,743.9C588.386,744.849 588.244,745.799 588.244,746.748L588.244,778.731C588.407,778.948 588.488,779.178 588.488,779.422C588.488,779.721 588.379,779.972 588.162,780.175C587.945,780.379 587.688,780.48 587.389,780.48C587.091,780.48 586.84,780.379 586.637,780.175C586.433,779.972 586.331,779.721 586.331,779.422C586.331,779.178 586.413,778.948 586.576,778.731L586.576,722.334C586.413,722.09 586.331,721.846 586.331,721.602C586.331,721.303 586.433,721.046 586.637,720.829C586.84,720.612 587.091,720.503 587.389,720.503C587.688,720.503 587.945,720.612 588.162,720.829C588.379,721.046 588.488,721.303 588.488,721.602C588.488,721.846 588.407,722.09 588.244,722.334L588.244,741.052C589.003,739.75 589.973,738.78 591.153,738.142C592.333,737.505 593.669,737.186 595.161,737.186C596.816,737.186 598.193,737.464 599.291,738.02C600.39,738.576 601.271,739.302 601.936,740.197C602.601,741.092 603.069,742.11 603.34,743.249C603.611,744.388 603.747,745.555 603.747,746.748L603.747,778.731ZM526.965,770.918C526.965,771.868 527.073,772.817 527.29,773.767C527.507,774.716 527.88,775.57 528.409,776.33C528.938,777.09 529.643,777.7 530.525,778.161C531.407,778.622 532.525,778.853 533.882,778.853C535.184,778.853 536.269,778.643 537.137,778.222C538.005,777.802 538.704,777.246 539.233,776.554C539.762,775.862 540.141,775.075 540.372,774.194C540.602,773.312 540.745,772.41 540.799,771.488L540.799,756.27L535.916,756.27C533.963,756.27 532.397,756.5 531.217,756.962C530.037,757.423 529.128,758.026 528.49,758.772C527.853,759.518 527.439,760.366 527.249,761.315C527.059,762.265 526.965,763.214 526.965,764.164L526.965,770.918ZM650.011,754.601L650.011,746.748C650.011,745.799 649.903,744.849 649.686,743.9C649.469,742.951 649.096,742.103 648.567,741.357C648.038,740.611 647.326,740.001 646.431,739.526C645.535,739.051 644.423,738.814 643.094,738.814C641.792,738.814 640.693,739.051 639.798,739.526C638.903,740.001 638.191,740.611 637.662,741.357C637.133,742.103 636.753,742.951 636.523,743.9C636.292,744.849 636.177,745.799 636.177,746.748L636.177,754.601L650.011,754.601ZM749.784,754.601L749.784,746.748C749.784,745.799 749.675,744.849 749.458,743.9C749.241,742.951 748.868,742.103 748.339,741.357C747.81,740.611 747.098,740.001 746.203,739.526C745.308,739.051 744.195,738.814 742.866,738.814C741.564,738.814 740.465,739.051 739.57,739.526C738.675,740.001 737.963,740.611 737.434,741.357C736.905,742.103 736.525,742.951 736.295,743.9C736.064,744.849 735.949,745.799 735.949,746.748L735.949,754.601L749.784,754.601ZM612.17,727.99C612.332,728.153 612.414,728.37 612.414,728.641C612.414,728.94 612.312,729.197 612.109,729.414C611.905,729.631 611.654,729.74 611.356,729.74C611.057,729.74 610.8,729.631 610.583,729.414C610.366,729.197 610.257,728.94 610.257,728.641C610.257,728.37 610.339,728.153 610.501,727.99L610.501,725.589C610.339,725.318 610.257,725.06 610.257,724.816C610.257,724.518 610.366,724.267 610.583,724.064C610.8,723.86 611.057,723.758 611.356,723.758C611.654,723.758 611.905,723.86 612.109,724.064C612.312,724.267 612.414,724.518 612.414,724.816C612.414,725.06 612.332,725.318 612.17,725.589L612.17,727.99Z" style="fill-rule:nonzero;"/>
    </g>
</svg>
